<svg width="800" height="296" viewBox="0 0 800 296" fill="none" xmlns="http://www.w3.org/2000/svg">
<path d="M357.848 129H338.162C337.709 129 337.483 128.717 337.483 128.151L337.822 8.75888C337.822 8.30632 338.048 8.08004 338.501 8.08004H359.715C360.168 8.08004 360.564 8.30632 360.903 8.75888L376.771 31.67L392.554 8.75888C392.894 8.30632 393.318 8.08004 393.827 8.08004H415.126C415.635 8.08004 415.89 8.30632 415.89 8.75888L416.229 128.151C416.229 128.717 416.003 129 415.55 129H395.864C395.411 129 395.185 128.717 395.185 128.151L395.015 39.4768L376.771 65.9519L358.697 39.4768L358.527 128.151C358.527 128.717 358.301 129 357.848 129ZM424.969 128.151L446.523 8.75888C446.636 8.30632 446.919 8.08004 447.371 8.08004H472.574C473.026 8.08004 473.309 8.30632 473.422 8.75888L494.127 128.151C494.184 128.717 493.957 129 493.448 129H474.186C473.62 129 473.309 128.717 473.253 128.151L471.386 115.423H447.711L445.844 128.151C445.787 128.717 445.505 129 444.995 129H425.648C425.196 129 424.969 128.717 424.969 128.151ZM458.997 48.0473L451.19 96.8395H467.907L460.779 48.0473L459.76 41.5982L458.997 48.0473ZM525.354 129H505.668C505.215 129 504.989 128.717 504.989 128.151L505.328 8.75888C505.328 8.30632 505.554 8.08004 506.007 8.08004H541.137C547.417 8.08004 553.187 9.60745 558.448 12.6623C563.709 15.7171 567.895 19.8185 571.007 24.9664C574.175 30.1143 575.759 35.9411 575.759 42.4468C575.759 46.6896 575.108 50.5364 573.807 53.9872C572.506 57.438 570.978 60.3514 569.225 62.7274C567.528 65.1033 565.972 66.857 564.558 67.9885C570.837 74.9467 573.977 83.1211 573.977 92.5119L574.146 128.151C574.146 128.717 573.864 129 573.298 129H553.611C553.159 129 552.932 128.83 552.932 128.491V92.5119C552.932 88.3256 551.462 84.7051 548.52 81.6503C545.578 78.5955 541.958 77.0681 537.658 77.0681H526.203L526.033 128.151C526.033 128.717 525.807 129 525.354 129ZM541.137 28.8698H526.203V56.1935H541.137C544.701 56.1935 547.869 54.864 550.641 52.2052C553.47 49.5464 554.884 46.2936 554.884 42.4468C554.884 38.7697 553.526 35.6017 550.811 32.9429C548.096 30.2275 544.871 28.8698 541.137 28.8698ZM629.388 129H608.343C607.834 129 607.551 128.717 607.495 128.151L583.481 8.75888C583.367 8.30632 583.594 8.08004 584.159 8.08004H603.846C604.299 8.08004 604.581 8.30632 604.695 8.75888L618.95 88.3539L632.867 8.75888C632.98 8.30632 633.263 8.08004 633.715 8.08004H653.147C653.77 8.08004 653.996 8.30632 653.826 8.75888L630.236 128.151C630.18 128.717 629.897 129 629.388 129ZM720.863 129H664.688C664.235 129 664.009 128.717 664.009 128.151L664.179 8.75888C664.179 8.30632 664.405 8.08004 664.858 8.08004H720.693C721.146 8.08004 721.372 8.36289 721.372 8.9286V28.3606C721.372 28.8132 721.146 29.0395 720.693 29.0395H685.053V56.1935H720.693C721.146 56.1935 721.372 56.4197 721.372 56.8723L721.542 76.5589C721.542 77.0115 721.315 77.2378 720.863 77.2378H685.053V107.616H720.863C721.315 107.616 721.542 107.899 721.542 108.465V128.321C721.542 128.774 721.315 129 720.863 129ZM793.839 129H737.664C737.212 129 736.985 128.717 736.985 128.151L737.155 8.9286C737.155 8.36289 737.438 8.08004 738.004 8.08004H757.351C757.916 8.08004 758.199 8.36289 758.199 8.9286L758.03 107.616H793.839C794.405 107.616 794.687 107.899 794.687 108.465V128.151C794.687 128.717 794.405 129 793.839 129ZM394.676 288.116L382.711 275.982C378.468 277.792 374.112 278.697 369.643 278.697C363.477 278.697 357.82 277.141 352.672 274.03C347.467 270.919 343.281 266.704 340.113 261.386C337.002 256.012 335.446 250.157 335.446 243.821L335.616 188.75C335.616 182.583 337.143 176.87 340.198 171.609C343.196 166.348 347.269 162.133 352.417 158.965C357.565 155.741 363.307 154.128 369.643 154.128C375.809 154.128 381.466 155.656 386.614 158.711C391.762 161.822 395.864 165.98 398.919 171.184C402.03 176.389 403.586 182.244 403.586 188.75L403.755 243.821C403.755 247.159 403.274 250.412 402.313 253.58C401.408 256.691 400.191 259.576 398.664 262.235L409.441 273.181C410.006 273.634 410.063 274.03 409.61 274.369L395.949 288.116C395.553 288.456 395.128 288.456 394.676 288.116ZM369.643 257.738C373.603 257.738 376.771 256.267 379.147 253.325C381.523 250.327 382.711 247.159 382.711 243.821L382.541 188.75C382.541 185.016 381.325 181.791 378.893 179.076C376.46 176.361 373.377 175.003 369.643 175.003C365.74 175.003 362.6 176.389 360.224 179.161C357.848 181.933 356.66 185.129 356.66 188.75V243.821C356.66 248.007 358.018 251.373 360.733 253.919C363.449 256.465 366.419 257.738 369.643 257.738ZM450.426 278.697C444.317 278.697 438.659 277.113 433.455 273.945C428.25 270.777 424.093 266.534 420.981 261.217C417.926 255.843 416.399 249.987 416.399 243.652L416.738 156.759C416.738 156.306 416.965 156.08 417.417 156.08H436.934C437.387 156.08 437.613 156.306 437.613 156.759V243.652C437.613 247.555 438.857 250.893 441.347 253.665C443.836 256.38 446.862 257.738 450.426 257.738C454.16 257.738 457.271 256.38 459.76 253.665C462.249 250.893 463.494 247.555 463.494 243.652V156.759C463.494 156.306 463.72 156.08 464.173 156.08H483.69C484.142 156.08 484.369 156.306 484.369 156.759L484.708 243.652C484.708 250.044 483.181 255.927 480.126 261.302C477.014 266.619 472.885 270.862 467.737 274.03C462.589 277.141 456.819 278.697 450.426 278.697ZM492.515 276.151L514.068 156.759C514.181 156.306 514.464 156.08 514.917 156.08H540.119C540.572 156.08 540.855 156.306 540.968 156.759L561.673 276.151C561.729 276.717 561.503 277 560.994 277H541.731C541.166 277 540.855 276.717 540.798 276.151L538.931 263.423H515.256L513.389 276.151C513.333 276.717 513.05 277 512.541 277H493.194C492.741 277 492.515 276.717 492.515 276.151ZM526.542 196.047L518.735 244.84H535.452L528.324 196.047L527.306 189.598L526.542 196.047ZM591.457 277H574.062C573.156 277 572.704 276.604 572.704 275.812L572.534 157.438C572.534 156.533 572.987 156.08 573.892 156.08H589.59L618.95 224.559L618.102 157.438C618.102 156.533 618.611 156.08 619.629 156.08H636.855C637.534 156.08 637.873 156.533 637.873 157.438L638.043 275.982C638.043 276.661 637.76 277 637.195 277H621.92L591.797 213.018L593.069 275.642C593.069 276.547 592.532 277 591.457 277ZM690.23 277H670.628C670.119 277 669.864 276.717 669.864 276.151V177.039H647.292C646.727 177.039 646.444 176.757 646.444 176.191L646.614 156.759C646.614 156.306 646.84 156.08 647.292 156.08H713.31C713.933 156.08 714.244 156.306 714.244 156.759V176.191C714.244 176.757 714.018 177.039 713.565 177.039H690.739L690.908 276.151C690.908 276.717 690.682 277 690.23 277Z" fill="#3E3E3E"/>
<path fill-rule="evenodd" clip-rule="evenodd" d="M0.350586 1.69245C0.350586 0.757733 1.10832 0 2.04303 0H233.062C233.996 0 234.754 0.75773 234.754 1.69244V196.126C234.754 196.553 234.916 196.964 235.206 197.277L307.614 275.309C308.619 276.392 307.851 278.152 306.373 278.152H235.521C235.04 278.152 234.583 277.948 234.262 277.591L195.961 234.965C195.64 234.608 195.182 234.404 194.702 234.404H2.04303C1.10832 234.404 0.350586 233.646 0.350586 232.711V1.69245ZM49.1497 42.3113C48.215 42.3113 47.4572 43.0691 47.4572 44.0038V185.182C47.4572 186.117 48.215 186.874 49.1497 186.874H71.7174H79.1408H109.299H128.675H147.289H164.939H187.507C188.442 186.874 189.199 186.117 189.199 185.182V44.0038C189.199 43.0691 188.442 42.3113 187.507 42.3113H164.774C164.306 42.3113 163.859 42.5048 163.539 42.8458L119.672 89.6028C119.004 90.3142 117.875 90.3156 117.206 89.6059L73.117 42.8428C72.7972 42.5036 72.3517 42.3113 71.8855 42.3113H49.1497Z" fill="url(#paint0_linear_23_1431)"/>
<defs>
<linearGradient id="paint0_linear_23_1431" x1="288" y1="-162.5" x2="486.554" y2="314.484" gradientUnits="userSpaceOnUse">
<stop stop-color="#08102E"/>
<stop offset="0.316401" stop-color="#1A2B6B"/>
<stop offset="0.657544" stop-color="#0D58C6"/>
<stop offset="0.938369" stop-color="white" stop-opacity="0"/>
</linearGradient>
</defs>
</svg>
